<?xml version="1.0" standalone="no"?>
<!DOCTYPE svg PUBLIC "-//W3C//DTD SVG 20010904//EN"
 "http://www.w3.org/TR/2001/REC-SVG-20010904/DTD/svg10.dtd">
<svg version="1.0" xmlns="http://www.w3.org/2000/svg"
 width="1200.000000pt" height="1200.000000pt" viewBox="0 0 1200.000000 1200.000000"
 preserveAspectRatio="xMidYMid meet">

<g transform="translate(0.000000,1200.000000) scale(0.100000,-0.100000)"
fill="#000000" stroke="none">
<path d="M5675 9074 c-16 -3 -104 -14 -195 -25 -1627 -200 -2977 -1273 -3494
-2777 -132 -384 -193 -735 -203 -1167 -8 -374 27 -706 109 -1030 185 -732 526
-1333 1063 -1871 397 -399 781 -664 1302 -898 485 -217 1078 -347 1668 -363
204 -5 366 4 675 38 560 61 1166 272 1683 585 501 303 935 707 1251 1164 229
331 395 655 515 1005 225 653 273 1276 156 1980 -32 191 -111 470 -197 697
-66 176 -239 527 -330 674 -307 490 -730 930 -1203 1250 -485 328 -1063 567
-1617 668 -325 60 -419 68 -798 71 -195 2 -368 1 -385 -1z m845 -198 c218 -31
405 -67 560 -107 562 -145 1099 -411 1538 -762 226 -181 459 -412 628 -623
425 -532 711 -1189 799 -1833 61 -447 51 -862 -30 -1272 -109 -543 -315 -1014
-658 -1499 -218 -308 -611 -694 -942 -922 -116 -81 -274 -176 -416 -253 -108
-58 -175 -91 -364 -175 -77 -34 -230 -93 -275 -106 -25 -7 -94 -27 -155 -44
-277 -80 -487 -116 -880 -150 -261 -23 -408 -22 -690 6 -578 57 -989 172
-1480 414 -684 338 -1263 861 -1638 1483 -203 335 -356 704 -451 1082 -88 354
-126 822 -96 1180 13 150 72 506 106 639 394 1559 1761 2731 3425 2935 90 11
178 22 194 25 17 2 183 3 370 1 245 -2 372 -8 455 -19z"/>
<path d="M5386 3044 c-182 -33 -290 -89 -416 -214 -245 -243 -254 -550 -25
-798 73 -79 159 -132 270 -169 69 -23 98 -26 205 -27 137 0 206 14 316 64 221
100 347 280 361 517 10 160 -28 281 -128 405 -161 200 -335 267 -583 222z"/>
</g>
</svg>
